<svg xmlns="http://www.w3.org/2000/svg" xmlns:xlink="http://www.w3.org/1999/xlink" width="500" zoomAndPan="magnify" viewBox="0 0 375 374.999991" height="500" preserveAspectRatio="xMidYMid meet" version="1.0"><defs><clipPath id="2c17ac0880"><path d="M 187.5 174.230469 L 219.949219 174.230469 L 219.949219 230.855469 L 187.5 230.855469 Z M 187.5 174.230469 " clip-rule="nonzero"/></clipPath><clipPath id="2b12619307"><path d="M 82 32 L 364 32 L 364 374 L 82 374 Z M 82 32 " clip-rule="nonzero"/></clipPath><clipPath id="7b92d93e4e"><path d="M -63.527344 98.011719 L 314.910156 -35.359375 L 426.34375 280.828125 L 47.90625 414.199219 Z M -63.527344 98.011719 " clip-rule="nonzero"/></clipPath><clipPath id="eb9e7ea248"><path d="M 315.097656 -35.425781 L -63.339844 97.945312 L 48.09375 414.132812 L 426.53125 280.761719 Z M 315.097656 -35.425781 " clip-rule="nonzero"/></clipPath><clipPath id="8762b625b6"><path d="M 136 343 L 188 343 L 188 374 L 136 374 Z M 136 343 " clip-rule="nonzero"/></clipPath><clipPath id="af20bb67a6"><path d="M -63.527344 98.011719 L 314.910156 -35.359375 L 426.34375 280.828125 L 47.90625 414.199219 Z M -63.527344 98.011719 " clip-rule="nonzero"/></clipPath><clipPath id="7737cca26f"><path d="M 315.097656 -35.425781 L -63.339844 97.945312 L 48.09375 414.132812 L 426.53125 280.761719 Z M 315.097656 -35.425781 " clip-rule="nonzero"/></clipPath><clipPath id="21e7b8d6e7"><path d="M 249 291 L 315 291 L 315 335 L 249 335 Z M 249 291 " clip-rule="nonzero"/></clipPath><clipPath id="97f1295569"><path d="M -63.527344 98.011719 L 314.910156 -35.359375 L 426.34375 280.828125 L 47.90625 414.199219 Z M -63.527344 98.011719 " clip-rule="nonzero"/></clipPath><clipPath id="a72b89eb74"><path d="M 315.097656 -35.425781 L -63.339844 97.945312 L 48.09375 414.132812 L 426.53125 280.761719 Z M 315.097656 -35.425781 " clip-rule="nonzero"/></clipPath><clipPath id="3a53b1d922"><path d="M 9 225 L 89 225 L 89 373 L 9 373 Z M 9 225 " clip-rule="nonzero"/></clipPath><clipPath id="9a71d628eb"><path d="M -63.527344 98.011719 L 314.910156 -35.359375 L 426.34375 280.828125 L 47.90625 414.199219 Z M -63.527344 98.011719 " clip-rule="nonzero"/></clipPath><clipPath id="a9316be650"><path d="M 315.097656 -35.425781 L -63.339844 97.945312 L 48.09375 414.132812 L 426.53125 280.761719 Z M 315.097656 -35.425781 " clip-rule="nonzero"/></clipPath><clipPath id="3373368d70"><path d="M 119 44 L 216 44 L 216 203 L 119 203 Z M 119 44 " clip-rule="nonzero"/></clipPath><clipPath id="4917e69c7d"><path d="M -63.527344 98.011719 L 314.910156 -35.359375 L 426.34375 280.828125 L 47.90625 414.199219 Z M -63.527344 98.011719 " clip-rule="nonzero"/></clipPath><clipPath id="93571f4965"><path d="M 315.097656 -35.425781 L -63.339844 97.945312 L 48.09375 414.132812 L 426.53125 280.761719 Z M 315.097656 -35.425781 " clip-rule="nonzero"/></clipPath><clipPath id="6c0721908a"><path d="M 140 43 L 175 43 L 175 173 L 140 173 Z M 140 43 " clip-rule="nonzero"/></clipPath><clipPath id="290ada4751"><path d="M -63.527344 98.011719 L 314.910156 -35.359375 L 426.34375 280.828125 L 47.90625 414.199219 Z M -63.527344 98.011719 " clip-rule="nonzero"/></clipPath><clipPath id="d4c149da12"><path d="M 315.097656 -35.425781 L -63.339844 97.945312 L 48.09375 414.132812 L 426.53125 280.761719 Z M 315.097656 -35.425781 " clip-rule="nonzero"/></clipPath><clipPath id="43e7192847"><path d="M 275 96 L 297 96 L 297 122 L 275 122 Z M 275 96 " clip-rule="nonzero"/></clipPath><clipPath id="5f83b0eaf2"><path d="M -63.527344 98.011719 L 314.910156 -35.359375 L 426.34375 280.828125 L 47.90625 414.199219 Z M -63.527344 98.011719 " clip-rule="nonzero"/></clipPath><clipPath id="bb26e03adf"><path d="M 315.097656 -35.425781 L -63.339844 97.945312 L 48.09375 414.132812 L 426.53125 280.761719 Z M 315.097656 -35.425781 " clip-rule="nonzero"/></clipPath><clipPath id="7cfcefc3f5"><path d="M 273 93 L 300 93 L 300 124 L 273 124 Z M 273 93 " clip-rule="nonzero"/></clipPath><clipPath id="fc584d1055"><path d="M -63.527344 98.011719 L 314.910156 -35.359375 L 426.34375 280.828125 L 47.90625 414.199219 Z M -63.527344 98.011719 " clip-rule="nonzero"/></clipPath><clipPath id="ffd0e6f405"><path d="M 315.097656 -35.425781 L -63.339844 97.945312 L 48.09375 414.132812 L 426.53125 280.761719 Z M 315.097656 -35.425781 " clip-rule="nonzero"/></clipPath><clipPath id="d93af2fb85"><path d="M 283 99 L 292 99 L 292 109 L 283 109 Z M 283 99 " clip-rule="nonzero"/></clipPath><clipPath id="b7fc9488c0"><path d="M -63.527344 98.011719 L 314.910156 -35.359375 L 426.34375 280.828125 L 47.90625 414.199219 Z M -63.527344 98.011719 " clip-rule="nonzero"/></clipPath><clipPath id="17ad8754dc"><path d="M 315.097656 -35.425781 L -63.339844 97.945312 L 48.09375 414.132812 L 426.53125 280.761719 Z M 315.097656 -35.425781 " clip-rule="nonzero"/></clipPath><clipPath id="dfa49e30b3"><path d="M 338 94 L 346 94 L 346 102 L 338 102 Z M 338 94 " clip-rule="nonzero"/></clipPath><clipPath id="a194c1a01d"><path d="M -63.527344 98.011719 L 314.910156 -35.359375 L 426.34375 280.828125 L 47.90625 414.199219 Z M -63.527344 98.011719 " clip-rule="nonzero"/></clipPath><clipPath id="bd9c59e1f1"><path d="M 315.097656 -35.425781 L -63.339844 97.945312 L 48.09375 414.132812 L 426.53125 280.761719 Z M 315.097656 -35.425781 " clip-rule="nonzero"/></clipPath><clipPath id="e53fe9edf5"><path d="M 336 91 L 348 91 L 348 104 L 336 104 Z M 336 91 " clip-rule="nonzero"/></clipPath><clipPath id="d9c09d55c7"><path d="M -63.527344 98.011719 L 314.910156 -35.359375 L 426.34375 280.828125 L 47.90625 414.199219 Z M -63.527344 98.011719 " clip-rule="nonzero"/></clipPath><clipPath id="a1a5d31639"><path d="M 315.097656 -35.425781 L -63.339844 97.945312 L 48.09375 414.132812 L 426.53125 280.761719 Z M 315.097656 -35.425781 " clip-rule="nonzero"/></clipPath><clipPath id="49fdf5a07e"><path d="M 190 0 L 324 0 L 324 68 L 190 68 Z M 190 0 " clip-rule="nonzero"/></clipPath><clipPath id="bcc93d9b73"><path d="M -63.527344 98.011719 L 314.910156 -35.359375 L 426.34375 280.828125 L 47.90625 414.199219 Z M -63.527344 98.011719 " clip-rule="nonzero"/></clipPath><clipPath id="cf7ef6d0f6"><path d="M 315.097656 -35.425781 L -63.339844 97.945312 L 48.09375 414.132812 L 426.53125 280.761719 Z M 315.097656 -35.425781 " clip-rule="nonzero"/></clipPath><clipPath id="379263b891"><path d="M 300 107 L 375 107 L 375 171 L 300 171 Z M 300 107 " clip-rule="nonzero"/></clipPath><clipPath id="a29152f68f"><path d="M -63.527344 98.011719 L 314.910156 -35.359375 L 426.34375 280.828125 L 47.90625 414.199219 Z M -63.527344 98.011719 " clip-rule="nonzero"/></clipPath><clipPath id="963b65f4f1"><path d="M 315.097656 -35.425781 L -63.339844 97.945312 L 48.09375 414.132812 L 426.53125 280.761719 Z M 315.097656 -35.425781 " clip-rule="nonzero"/></clipPath><clipPath id="53bc9f796c"><path d="M 158 18 L 252 18 L 252 101 L 158 101 Z M 158 18 " clip-rule="nonzero"/></clipPath><clipPath id="c70f8ded04"><path d="M -63.527344 98.011719 L 314.910156 -35.359375 L 426.34375 280.828125 L 47.90625 414.199219 Z M -63.527344 98.011719 " clip-rule="nonzero"/></clipPath><clipPath id="25581c08c0"><path d="M 315.097656 -35.425781 L -63.339844 97.945312 L 48.09375 414.132812 L 426.53125 280.761719 Z M 315.097656 -35.425781 " clip-rule="nonzero"/></clipPath><clipPath id="b67c6d67fd"><path d="M 157 168 L 297 168 L 297 331 L 157 331 Z M 157 168 " clip-rule="nonzero"/></clipPath><clipPath id="ec0b544dd4"><path d="M -63.527344 98.011719 L 314.910156 -35.359375 L 426.34375 280.828125 L 47.90625 414.199219 Z M -63.527344 98.011719 " clip-rule="nonzero"/></clipPath><clipPath id="451ace3b3c"><path d="M 315.097656 -35.425781 L -63.339844 97.945312 L 48.09375 414.132812 L 426.53125 280.761719 Z M 315.097656 -35.425781 " clip-rule="nonzero"/></clipPath></defs><g clip-path="url(#2c17ac0880)"><path fill="#b7fff5" d="M 187.5 174.230469 L 219.949219 174.230469 L 219.949219 230.890625 L 187.5 230.890625 Z M 187.5 174.230469 " fill-opacity="1" fill-rule="nonzero"/></g><g clip-path="url(#2b12619307)"><g clip-path="url(#7b92d93e4e)"><g clip-path="url(#eb9e7ea248)"><path fill="#f68c8c" d="M 186.308594 361.730469 C 167.949219 371.824219 155.113281 373.535156 149.984375 373.058594 C 149.351562 373 148.765625 372.679688 148.308594 372.238281 C 78.921875 304.757812 74.320312 257.53125 88.933594 229.097656 C 96.167969 215.023438 108.113281 205.554688 119.238281 200.515625 C 145.585938 208.261719 167.53125 190.589844 175.210938 180.789062 C 178.652344 179.574219 181.890625 188.757812 183.078125 193.5 C 195.441406 180.238281 196.992188 154.242188 196.222656 142.898438 C 202.097656 141.988281 208.304688 148.804688 210.675781 152.324219 C 221.871094 131.34375 210.871094 107.089844 203.96875 97.585938 C 171.242188 81.636719 171.027344 48.066406 175.011719 33.273438 C 187.085938 30.179688 207.503906 39.402344 216.203125 44.402344 C 224.546875 39.6875 246.1875 31.414062 266.019531 36.039062 C 290.804688 41.820312 313.328125 67.269531 319.375 74.816406 C 324.214844 80.855469 330.21875 81.320312 332.617188 80.796875 C 353.683594 76.855469 361.523438 96.898438 362.808594 107.414062 C 368.296875 151.546875 318.765625 169.230469 293.316406 172.554688 C 306.039062 218.304688 312.671875 279.804688 314.554688 306.785156 C 314.640625 307.992188 314.035156 309.128906 312.988281 309.734375 C 308.433594 312.355469 300.324219 316.699219 294.199219 318.859375 C 294.261719 319.5625 294.320312 320.246094 294.378906 320.910156 C 294.496094 322.222656 293.8125 323.472656 292.628906 324.054688 C 289.140625 325.773438 281.660156 329.328125 276.085938 331.050781 C 270.871094 332.664062 263.296875 333.921875 259.476562 334.496094 C 258.0625 334.710938 256.691406 333.945312 256.109375 332.636719 L 243.285156 303.898438 C 209.488281 322.386719 190.816406 324.800781 176.976562 327.269531 L 187.761719 357.871094 C 188.28125 359.34375 187.671875 360.980469 186.308594 361.730469 Z M 186.308594 361.730469 " fill-opacity="1" fill-rule="nonzero"/></g></g></g><g clip-path="url(#8762b625b6)"><g clip-path="url(#af20bb67a6)"><g clip-path="url(#7737cca26f)"><path fill="#ff3131" d="M 186.304688 361.730469 C 167.945312 371.824219 155.113281 373.535156 149.984375 373.058594 C 149.351562 373 148.777344 372.691406 148.320312 372.25 C 144.113281 368.15625 140.144531 364.140625 136.402344 360.195312 L 182.816406 343.839844 L 187.761719 357.871094 C 188.28125 359.34375 187.671875 360.980469 186.304688 361.730469 Z M 186.304688 361.730469 " fill-opacity="1" fill-rule="nonzero"/></g></g></g><g clip-path="url(#21e7b8d6e7)"><g clip-path="url(#97f1295569)"><g clip-path="url(#a72b89eb74)"><path fill="#ff3131" d="M 294.378906 320.910156 C 294.320312 320.246094 294.257812 319.5625 294.195312 318.859375 C 300.320312 316.703125 308.433594 312.355469 312.984375 309.734375 C 314.035156 309.128906 314.636719 307.976562 314.554688 306.765625 C 314.25 302.417969 313.820312 297.175781 313.265625 291.246094 L 292.730469 298.484375 C 292.824219 299.976562 292.921875 301.429688 293.015625 302.839844 L 249.632812 318.128906 L 256.105469 332.636719 C 256.691406 333.945312 258.0625 334.710938 259.476562 334.496094 C 263.292969 333.921875 270.871094 332.664062 276.082031 331.050781 C 281.65625 329.328125 289.140625 325.773438 292.628906 324.054688 C 293.808594 323.472656 294.496094 322.222656 294.378906 320.910156 Z M 294.378906 320.910156 " fill-opacity="1" fill-rule="nonzero"/></g></g></g><g clip-path="url(#3a53b1d922)"><g clip-path="url(#9a71d628eb)"><g clip-path="url(#a9316be650)"><path fill="#ff3131" d="M 9.878906 273.414062 C 19.226562 218.632812 66.121094 221.492188 88.402344 229.773438 L 82.96875 250.070312 C 53.800781 249.707031 63.359375 268.597656 78.996094 296.472656 C 105.179688 341.925781 70.324219 363.886719 58.292969 369.578125 C 46.261719 375.269531 35.199219 369.976562 41.886719 364.230469 C 48.574219 358.488281 56.609375 346.945312 30.96875 325.015625 C 10.457031 307.46875 8.363281 283.300781 9.878906 273.414062 Z M 9.878906 273.414062 " fill-opacity="1" fill-rule="nonzero"/></g></g></g><g clip-path="url(#3373368d70)"><g clip-path="url(#4917e69c7d)"><g clip-path="url(#93571f4965)"><path fill="#ff3131" d="M 210.675781 152.324219 C 221.871094 131.347656 210.871094 107.09375 203.972656 97.589844 C 177.996094 84.929688 172.503906 61.175781 173.332031 44.515625 C 161.988281 52.203125 146.496094 72.230469 155.628906 100.109375 C 147.007812 109.164062 136.261719 130.335938 148.28125 153.507812 C 146.597656 161.199219 138.429688 181.363281 119.238281 200.519531 C 145.585938 208.261719 167.53125 190.59375 175.210938 180.792969 C 178.652344 179.578125 181.890625 188.761719 183.078125 193.503906 C 195.441406 180.242188 196.992188 154.242188 196.222656 142.902344 C 202.097656 141.992188 208.304688 148.804688 210.675781 152.324219 Z M 210.675781 152.324219 " fill-opacity="1" fill-rule="nonzero"/></g></g></g><g clip-path="url(#6c0721908a)"><g clip-path="url(#290ada4751)"><g clip-path="url(#d4c149da12)"><path stroke-linecap="round" transform="matrix(-0.609867, 0.214935, 0.214935, 0.609867, 316.946468, -25.38191)" fill="none" stroke-linejoin="round" d="M 248.497633 29.998861 C 268.996597 35.386041 298.784898 54.754685 299.794975 100.111793 M 292.94254 141.751527 C 298.060135 126.048905 300.064904 112.218348 299.794975 100.111793 M 299.794975 100.111793 C 317.023603 108.886909 343.580259 134.243128 337.96037 174.218702 C 336.648604 183.545643 333.586977 193.668629 328.242035 204.564296 " stroke="#000000" stroke-width="8" stroke-opacity="1" stroke-miterlimit="4"/></g></g></g><g clip-path="url(#43e7192847)"><g clip-path="url(#5f83b0eaf2)"><g clip-path="url(#bb26e03adf)"><path fill="#000000" d="M 276.839844 112.066406 C 277.117188 112.855469 277.453125 113.617188 277.851562 114.351562 C 278.246094 115.085938 278.691406 115.777344 279.1875 116.421875 C 279.679688 117.070312 280.21875 117.660156 280.796875 118.199219 C 281.371094 118.734375 281.980469 119.203125 282.617188 119.609375 C 283.253906 120.011719 283.910156 120.34375 284.582031 120.601562 C 285.253906 120.859375 285.929688 121.039062 286.609375 121.136719 C 287.292969 121.238281 287.964844 121.257812 288.628906 121.199219 C 289.292969 121.136719 289.9375 120.996094 290.558594 120.777344 C 291.179688 120.558594 291.769531 120.265625 292.324219 119.894531 C 292.882812 119.527344 293.394531 119.089844 293.859375 118.582031 C 294.328125 118.078125 294.742188 117.515625 295.105469 116.890625 C 295.46875 116.269531 295.769531 115.601562 296.011719 114.886719 C 296.253906 114.171875 296.433594 113.425781 296.546875 112.644531 C 296.660156 111.867188 296.707031 111.070312 296.6875 110.253906 C 296.667969 109.4375 296.582031 108.621094 296.429688 107.804688 C 296.277344 106.984375 296.0625 106.179688 295.785156 105.386719 C 295.503906 104.597656 295.167969 103.835938 294.773438 103.101562 C 294.378906 102.367188 293.933594 101.675781 293.4375 101.03125 C 292.941406 100.382812 292.40625 99.789062 291.828125 99.253906 C 291.25 98.71875 290.644531 98.246094 290.007812 97.84375 C 289.371094 97.4375 288.714844 97.109375 288.042969 96.851562 C 287.371094 96.59375 286.695312 96.414062 286.011719 96.3125 C 285.332031 96.214844 284.65625 96.195312 283.992188 96.253906 C 283.328125 96.316406 282.6875 96.453125 282.0625 96.675781 C 281.441406 96.894531 280.851562 97.1875 280.296875 97.558594 C 279.742188 97.925781 279.230469 98.363281 278.761719 98.867188 C 278.292969 99.375 277.878906 99.9375 277.515625 100.558594 C 277.15625 101.183594 276.851562 101.851562 276.609375 102.566406 C 276.367188 103.277344 276.191406 104.027344 276.074219 104.804688 C 275.960938 105.585938 275.914062 106.382812 275.933594 107.199219 C 275.953125 108.011719 276.039062 108.832031 276.191406 109.648438 C 276.34375 110.46875 276.558594 111.273438 276.839844 112.066406 Z M 276.839844 112.066406 " fill-opacity="1" fill-rule="nonzero"/></g></g></g><g clip-path="url(#7cfcefc3f5)"><g clip-path="url(#fc584d1055)"><g clip-path="url(#ffd0e6f405)"><path stroke-linecap="round" transform="matrix(-0.609867, 0.214935, 0.214935, 0.609867, 316.946468, -25.38191)" fill="none" stroke-linejoin="round" d="M 129.150081 179.857981 C 129.151167 181.151425 129.052737 182.435107 128.849092 183.711033 C 128.651144 184.984951 128.357043 186.222301 127.964779 187.417385 C 127.580221 188.616159 127.097175 189.753566 126.531051 190.836986 C 125.968617 191.912701 125.320771 192.909631 124.600916 193.829457 C 123.879053 194.743587 123.09256 195.565202 122.245126 196.286598 C 121.397692 197.007993 120.504403 197.617449 119.563249 198.109266 C 118.618405 198.608788 117.648487 198.982641 116.649805 199.238529 C 115.649115 199.48872 114.636754 199.614923 113.618418 199.615129 C 112.600083 199.615336 111.589175 199.491227 110.589386 199.235099 C 109.585908 198.986676 108.614656 198.611604 107.675629 198.109883 C 106.732914 197.615868 105.839843 197.00828 104.988712 196.28343 C 104.139589 195.564277 103.357529 194.744628 102.636836 193.826491 C 101.916142 192.908354 101.270544 191.91251 100.703731 190.831255 C 100.138926 189.755697 99.660937 188.617517 99.269765 187.416715 C 98.878592 186.215913 98.584276 184.980975 98.386817 183.711903 C 98.187349 182.437134 98.087072 181.153027 98.083978 179.853885 C 98.088589 178.558433 98.18702 177.274752 98.384967 176.000833 C 98.582915 174.726915 98.877016 173.489565 99.26928 172.294481 C 99.659535 171.0937 100.134876 169.952603 100.703008 168.87488 C 101.271139 167.797158 101.91128 166.796538 102.633143 165.882409 C 103.352998 164.962582 104.141499 164.146664 104.988933 163.425269 C 105.836367 162.703873 106.729656 162.094418 107.6745 161.594895 C 108.615654 161.103078 109.591269 160.727217 110.589951 160.471329 C 111.590641 160.221138 112.595297 160.091246 113.621338 160.094729 C 114.639674 160.094523 115.650581 160.218631 116.65037 160.474759 C 117.648151 160.72519 118.619403 161.100262 119.562119 161.594277 C 120.506843 162.09399 121.399913 162.701578 122.249036 163.420731 C 123.09447 164.147589 123.882227 164.96523 124.602921 165.883367 C 125.321606 166.795807 125.963515 167.799356 126.534018 168.872906 C 127.100831 169.954161 127.57882 171.092341 127.969992 172.293144 C 128.359156 173.488248 128.65548 174.728883 128.85294 175.997955 C 129.052407 177.272725 129.152684 178.556832 129.150081 179.857981 Z M 129.150081 179.857981 " stroke="#000000" stroke-width="8" stroke-opacity="1" stroke-miterlimit="4"/></g></g></g><g clip-path="url(#d93af2fb85)"><g clip-path="url(#b7fc9488c0)"><g clip-path="url(#17ad8754dc)"><path fill="#ffffff" d="M 283.90625 105.503906 C 284.011719 105.804688 284.140625 106.09375 284.292969 106.375 C 284.441406 106.652344 284.613281 106.914062 284.804688 107.15625 C 284.992188 107.402344 285.199219 107.625 285.417969 107.828125 C 285.640625 108.03125 285.875 108.210938 286.121094 108.363281 C 286.363281 108.515625 286.617188 108.640625 286.875 108.734375 C 287.132812 108.832031 287.394531 108.898438 287.65625 108.933594 C 287.917969 108.972656 288.175781 108.976562 288.433594 108.953125 C 288.691406 108.929688 288.9375 108.875 289.179688 108.789062 C 289.417969 108.707031 289.648438 108.59375 289.863281 108.449219 C 290.078125 108.308594 290.273438 108.140625 290.457031 107.949219 C 290.636719 107.753906 290.800781 107.539062 290.941406 107.304688 C 291.082031 107.066406 291.199219 106.8125 291.292969 106.539062 C 291.390625 106.265625 291.460938 105.980469 291.503906 105.683594 C 291.550781 105.386719 291.570312 105.085938 291.5625 104.773438 C 291.558594 104.464844 291.527344 104.15625 291.46875 103.84375 C 291.414062 103.53125 291.332031 103.226562 291.226562 102.925781 C 291.121094 102.625 290.992188 102.335938 290.839844 102.058594 C 290.691406 101.78125 290.519531 101.519531 290.332031 101.273438 C 290.140625 101.027344 289.933594 100.804688 289.714844 100.601562 C 289.492188 100.398438 289.257812 100.222656 289.015625 100.070312 C 288.769531 99.917969 288.519531 99.792969 288.257812 99.695312 C 288 99.601562 287.742188 99.535156 287.476562 99.496094 C 287.214844 99.460938 286.957031 99.453125 286.699219 99.476562 C 286.445312 99.503906 286.195312 99.558594 285.953125 99.640625 C 285.714844 99.726562 285.488281 99.839844 285.273438 99.980469 C 285.058594 100.125 284.859375 100.289062 284.675781 100.484375 C 284.496094 100.675781 284.335938 100.890625 284.195312 101.128906 C 284.050781 101.367188 283.933594 101.621094 283.839844 101.894531 C 283.746094 102.164062 283.675781 102.449219 283.628906 102.746094 C 283.582031 103.042969 283.5625 103.347656 283.570312 103.65625 C 283.574219 103.96875 283.605469 104.277344 283.664062 104.589844 C 283.71875 104.898438 283.800781 105.207031 283.90625 105.503906 Z M 283.90625 105.503906 " fill-opacity="1" fill-rule="nonzero"/></g></g></g><g clip-path="url(#dfa49e30b3)"><g clip-path="url(#a194c1a01d)"><g clip-path="url(#bd9c59e1f1)"><path fill="#000000" d="M 340.183594 99.253906 C 340.527344 99.671875 340.902344 100.035156 341.308594 100.347656 C 341.714844 100.660156 342.121094 100.894531 342.527344 101.054688 C 342.933594 101.214844 343.308594 101.289062 343.652344 101.273438 C 343.996094 101.257812 344.28125 101.152344 344.511719 100.964844 C 344.742188 100.773438 344.898438 100.511719 344.980469 100.175781 C 345.058594 99.839844 345.058594 99.457031 344.980469 99.03125 C 344.898438 98.601562 344.742188 98.15625 344.511719 97.699219 C 344.285156 97.242188 343.996094 96.804688 343.652344 96.390625 C 343.308594 95.972656 342.933594 95.609375 342.527344 95.296875 C 342.121094 94.984375 341.714844 94.75 341.308594 94.589844 C 340.902344 94.429688 340.527344 94.355469 340.183594 94.371094 C 339.839844 94.390625 339.554688 94.492188 339.324219 94.683594 C 339.09375 94.871094 338.9375 95.132812 338.855469 95.46875 C 338.777344 95.804688 338.777344 96.1875 338.855469 96.613281 C 338.9375 97.042969 339.09375 97.488281 339.324219 97.945312 C 339.550781 98.402344 339.839844 98.839844 340.183594 99.253906 Z M 340.183594 99.253906 " fill-opacity="1" fill-rule="nonzero"/></g></g></g><g clip-path="url(#e53fe9edf5)"><g clip-path="url(#d9c09d55c7)"><g clip-path="url(#a1a5d31639)"><path stroke-linecap="round" transform="matrix(-0.498506, 0.411857, 0.411857, 0.498506, 276.035377, -9.24002)" fill="none" stroke-linejoin="round" d="M 30.386688 192.533104 C 30.388558 193.370001 30.299305 194.17248 30.122776 194.945198 C 29.946248 195.717916 29.692767 196.397492 29.366182 196.988583 C 29.039597 197.579674 28.665621 198.037529 28.240407 198.35749 C 27.815194 198.677451 27.371341 198.832585 26.911888 198.836053 C 26.448587 198.834865 26.004514 198.676744 25.575822 198.357034 C 25.151786 198.033477 24.774721 197.577083 24.448473 196.992508 C 24.123036 196.399429 23.870692 195.714617 23.695291 194.94273 C 23.515232 194.17469 23.428924 193.368373 23.430902 192.536133 C 23.429032 191.699236 23.518285 190.896757 23.694813 190.124039 C 23.871342 189.351322 24.124822 188.671746 24.451407 188.080654 C 24.777992 187.489563 25.151968 187.031708 25.577182 186.711747 C 26.006244 186.396444 26.446249 186.236653 26.909549 186.237841 C 27.369002 186.234373 27.813075 186.392493 28.241768 186.712203 C 28.665804 187.03576 29.042869 187.492154 29.369116 188.076729 C 29.694554 188.669808 29.946897 189.35462 30.122299 190.126507 C 30.302358 190.894547 30.388665 191.700864 30.386688 192.533104 Z M 30.386688 192.533104 " stroke="#000000" stroke-width="8" stroke-opacity="1" stroke-miterlimit="4"/></g></g></g><g clip-path="url(#49fdf5a07e)"><g clip-path="url(#bcc93d9b73)"><g clip-path="url(#cf7ef6d0f6)"><path fill="#ff3131" d="M 190.777344 34.042969 C 200.558594 36.40625 210.71875 41.242188 216.207031 44.398438 C 224.734375 49.90625 231.671875 62.175781 234.074219 67.621094 C 254.28125 67.273438 264.6875 67.960938 276.871094 62.699219 C 283.609375 59.789062 282.378906 52.695312 280.675781 48.777344 C 293.078125 44.40625 308.3125 49.359375 314.378906 52.382812 C 322.597656 56.476562 324.550781 50.300781 323.242188 47.324219 C 290.6875 -26.851562 210.710938 1.332031 190.777344 34.042969 Z M 190.777344 34.042969 " fill-opacity="1" fill-rule="nonzero"/></g></g></g><g clip-path="url(#379263b891)"><g clip-path="url(#a29152f68f)"><g clip-path="url(#963b65f4f1)"><path stroke-linecap="round" transform="matrix(-0.609867, 0.214935, 0.214935, 0.609867, 316.946468, -25.38191)" fill="none" stroke-linejoin="miter" d="M 29.498121 256.002797 C 37.998084 258.003128 55.500913 256.99712 64.999784 245.002578 " stroke="#000000" stroke-width="8" stroke-opacity="1" stroke-miterlimit="4"/></g></g></g><g clip-path="url(#53bc9f796c)"><g clip-path="url(#c70f8ded04)"><g clip-path="url(#25581c08c0)"><path stroke-linecap="round" transform="matrix(-0.609867, 0.214935, 0.214935, 0.609867, 316.946468, -25.38191)" fill="none" stroke-linejoin="miter" d="M 225.470821 39.920413 C 217.304796 41.920861 195.469915 58.423099 188.467824 92.423071 " stroke="#000000" stroke-width="8" stroke-opacity="1" stroke-miterlimit="4"/></g></g></g><g clip-path="url(#b67c6d67fd)"><g clip-path="url(#ec0b544dd4)"><g clip-path="url(#451ace3b3c)"><path stroke-linecap="round" transform="matrix(-0.609867, 0.214935, 0.214935, 0.609867, 316.946468, -25.38191)" fill="none" stroke-linejoin="round" d="M 210.129016 490.397415 C 204.551383 469.22797 190.14644 417.286629 177.159455 378.891908 M 136.211271 276.552145 C 146.329457 273.96618 170.381644 266.24529 185.632152 256.085969 M 275.997539 390.181506 C 278.058905 408.061791 278.114403 417.906062 276.805597 440.599371 C 276.750511 441.624383 277.488297 442.536496 278.505554 442.696797 C 336.083072 451.881004 364.190389 445.888674 385.426232 442.407723 C 394.469513 440.424764 398.469484 438.925386 410.464479 434.922179 " stroke="#000000" stroke-width="8" stroke-opacity="1" stroke-miterlimit="4"/></g></g></g></svg>